<svg width="256" height="256" viewBox="0 0 256 256" fill="none" xmlns="http://www.w3.org/2000/svg">
<rect x="9" y="8" width="239" height="239" rx="119.5" fill="#1A72F8"/>
<mask id="mask0" mask-type="alpha" maskUnits="userSpaceOnUse" x="21" y="20" width="215" height="215">
<circle cx="128.212" cy="127.212" r="107.118" fill="#C4C4C4"/>
</mask>
<g mask="url(#mask0)">
<path d="M235.33 127.212C235.33 186.372 187.372 234.33 128.212 234.33C69.0523 234.33 21.0939 186.372 21.0939 127.212C21.0939 68.0523 69.0523 20.0939 128.212 20.0939C187.372 20.0939 235.33 68.0523 235.33 127.212Z" fill="#1A72F8"/>
<path d="M176.005 159.096C168.998 159.096 162.664 157.478 157.004 154.244C151.433 151.01 146.986 146.608 143.662 141.037C140.428 135.377 138.766 129.043 138.676 122.036V58.4274C138.676 56.8103 139.125 55.5525 140.023 54.6541C141.012 53.6658 142.314 53.1717 143.932 53.1717C145.459 53.1717 146.672 53.6658 147.57 54.6541C148.558 55.5525 149.053 56.8103 149.053 58.4274V98.0478C152.017 93.8253 155.925 90.4562 160.777 87.9406C165.718 85.3352 171.199 84.0325 177.218 84.0325C184.136 84.0325 190.335 85.6945 195.815 89.0187C201.296 92.253 205.608 96.7002 208.753 102.36C211.987 108.02 213.604 114.399 213.604 121.497C213.604 128.684 211.942 135.108 208.618 140.768C205.384 146.428 200.936 150.92 195.276 154.244C189.616 157.478 183.193 159.096 176.005 159.096ZM176.005 149.662C181.216 149.662 185.888 148.449 190.021 146.024C194.153 143.508 197.388 140.139 199.724 135.916C202.149 131.694 203.362 126.887 203.362 121.497C203.362 116.196 202.149 111.434 199.724 107.212C197.388 102.899 194.153 99.5302 190.021 97.1045C185.888 94.6788 181.216 93.4659 176.005 93.4659C170.884 93.4659 166.257 94.6788 162.125 97.1045C157.992 99.5302 154.758 102.899 152.422 107.212C150.086 111.434 148.918 116.196 148.918 121.497C148.918 126.887 150.086 131.694 152.422 135.916C154.758 140.139 157.992 143.508 162.125 146.024C166.257 148.449 170.884 149.662 176.005 149.662Z" fill="white"/>
<path d="M95.0355 84.5994C87.9419 84.5994 81.5304 86.2364 75.8009 89.5104C70.1624 92.7844 65.6607 97.2406 62.2958 102.879C59.0218 108.609 57.3394 115.02 57.2484 122.114L57.2484 186.502C57.2484 188.139 57.7031 189.412 58.6126 190.321C59.6129 191.322 60.9316 191.822 62.5686 191.822C64.1147 191.822 65.3424 191.322 66.2518 190.321C67.2522 189.412 67.7524 188.139 67.7524 186.502L67.7524 146.396C70.7535 150.67 74.7096 154.08 79.6205 156.627C84.6224 159.264 90.17 160.583 96.2632 160.583C103.266 160.583 109.541 158.9 115.089 155.535C120.636 152.261 125.001 147.76 128.184 142.03C131.458 136.301 133.095 129.844 133.095 122.659C133.095 115.384 131.413 108.881 128.048 103.152C124.774 97.4225 120.272 92.8753 114.543 89.5104C108.813 86.2364 102.311 84.5994 95.0355 84.5994ZM95.0355 94.1485C100.31 94.1485 105.039 95.3763 109.223 97.8317C113.406 100.378 116.68 103.789 119.045 108.063C121.5 112.337 122.728 117.203 122.728 122.659C122.728 128.025 121.5 132.845 119.045 137.119C116.68 141.485 113.406 144.895 109.223 147.351C105.039 149.806 100.31 151.034 95.0355 151.034C89.8517 151.034 85.1681 149.806 80.9847 147.351C76.8013 144.895 73.5273 141.485 71.1628 137.119C68.7983 132.845 67.616 128.025 67.616 122.659C67.616 117.203 68.7983 112.337 71.1628 108.063C73.5273 103.789 76.8013 100.378 80.9847 97.8317C85.1681 95.3763 89.8517 94.1485 95.0355 94.1485Z" fill="white"/>
</g>
</svg>
